<svg width="241" height="55" viewBox="0 0 241 55" fill="none" xmlns="http://www.w3.org/2000/svg">
  <g clip-path="url(#clip0_47_2)">
    <path
      d="M139.38 5.63794V26.5224H143.331V19.8624L148.636 26.5224H153.773L146.83 18.7333L153.716 10.8872H148.58L143.331 17.5199V5.63794H139.38ZM77.2626 6.82339V20.6525C77.2626 21.4427 77.0746 22.0634 76.6983 22.5149C76.322 22.9665 75.7761 23.1924 75.0611 23.1924C74.3274 23.1924 73.7628 22.9574 73.3677 22.487C72.9914 22.0167 72.7938 21.3581 72.775 20.5114H68.8243C68.8243 22.4682 69.398 23.992 70.5457 25.0833C71.7122 26.1745 73.236 26.7204 75.1175 26.7204C76.9801 26.7204 78.4666 26.1932 79.5766 25.1396C80.6867 24.0671 81.2416 22.5716 81.2416 20.6525V6.82339H77.2626ZM91.9661 10.6335C90.6302 10.6335 89.4167 10.9625 88.3255 11.621C87.253 12.2795 86.3974 13.2206 85.7577 14.4436C85.1368 15.6666 84.8259 17.0681 84.8259 18.6485C84.8259 20.2478 85.1368 21.6685 85.7577 22.9103C86.3974 24.1332 87.253 25.0834 88.3255 25.7607C89.4167 26.4381 90.6211 26.7767 91.9381 26.7767C93.1047 26.7767 94.1302 26.5412 95.0145 26.0708C95.9176 25.5816 96.6231 24.9706 97.1311 24.2368V26.5224H101.11V10.8872H97.1311V13.1171C96.6043 12.4021 95.8987 11.8092 95.0145 11.3389C94.149 10.8685 93.1326 10.6335 91.9661 10.6335V10.6335ZM111.694 10.6335C110.188 10.6335 108.853 10.9721 107.686 11.6495C106.52 12.308 105.607 13.2485 104.949 14.4715C104.29 15.6757 103.961 17.0868 103.961 18.7048C103.961 20.3229 104.29 21.7436 104.949 22.9666C105.607 24.1707 106.52 25.1113 107.686 25.7886C108.853 26.4472 110.188 26.7767 111.694 26.7767C113.613 26.7767 115.212 26.2778 116.491 25.2807C117.771 24.2835 118.627 22.9386 119.059 21.2453H114.798C114.309 22.6752 113.264 23.3898 111.665 23.3898C110.536 23.3898 109.643 22.9855 108.984 22.1765C108.326 21.3486 107.997 20.1912 107.997 18.7048C107.997 17.1997 108.326 16.0428 108.984 15.2337C109.643 14.4059 110.536 13.9919 111.665 13.9919C112.455 13.9919 113.114 14.1896 113.641 14.5847C114.186 14.961 114.572 15.4876 114.798 16.1649H119.059C118.627 14.4152 117.771 13.0607 116.491 12.1011C115.231 11.1227 113.631 10.6335 111.694 10.6335V10.6335ZM128.796 10.6335C127.254 10.6335 125.889 10.9625 124.704 11.621C123.519 12.2795 122.597 13.2206 121.938 14.4436C121.28 15.6666 120.95 17.0868 120.95 18.7048C120.95 20.3041 121.28 21.7152 121.938 22.9382C122.616 24.1611 123.547 25.1113 124.732 25.7886C125.936 26.4472 127.291 26.7767 128.796 26.7767C130.659 26.7767 132.23 26.2966 133.509 25.337C134.789 24.3586 135.654 23.1173 136.106 21.6122H131.844C131.223 22.8727 130.179 23.503 128.712 23.503C127.696 23.503 126.839 23.1831 126.143 22.5434C125.447 21.9037 125.052 21.0192 124.958 19.8903H136.388C136.463 19.4387 136.501 18.9308 136.501 18.3664C136.501 16.8424 136.172 15.4969 135.513 14.3304C134.874 13.1451 133.961 12.2328 132.775 11.5931C131.609 10.9534 130.283 10.6335 128.796 10.6335V10.6335ZM128.683 13.8788C129.718 13.8788 130.593 14.1896 131.308 14.8105C132.023 15.4126 132.39 16.2212 132.409 17.2372H124.986C125.137 16.1836 125.541 15.3653 126.2 14.7821C126.877 14.18 127.705 13.8788 128.683 13.8788V13.8788ZM92.9825 14.1046C93.7163 14.1046 94.4027 14.2931 95.0424 14.6694C95.6821 15.0269 96.19 15.5535 96.5663 16.2497C96.9426 16.927 97.1311 17.7453 97.1311 18.7048C97.1311 19.6644 96.9426 20.4923 96.5663 21.1884C96.19 21.8657 95.6821 22.3929 95.0424 22.7692C94.4027 23.1267 93.7163 23.3051 92.9825 23.3051C92.2676 23.3051 91.5898 23.1171 90.9501 22.7408C90.3292 22.3645 89.8213 21.8282 89.4262 21.1321C89.0499 20.4171 88.8619 19.5892 88.8619 18.6485C88.8619 17.7078 89.0499 16.8986 89.4262 16.2213C89.8213 15.5251 90.3292 14.9985 90.9501 14.641C91.571 14.2835 92.2487 14.1046 92.9825 14.1046ZM200.311 26.8795C199.615 26.8795 199.032 27.1049 198.562 27.5565C198.11 27.9892 197.884 28.5351 197.884 29.1936C197.884 29.8521 198.11 30.4071 198.562 30.8586C199.032 31.2914 199.615 31.5077 200.311 31.5077C201.008 31.5077 201.581 31.2914 202.033 30.8586C202.503 30.4071 202.739 29.8521 202.739 29.1936C202.739 28.5351 202.503 27.9892 202.033 27.5565C201.581 27.1049 201.008 26.8795 200.311 26.8795ZM137.827 28.1213V49.0053H141.779V40.3697C141.779 39.1279 142.089 38.1777 142.71 37.5192C143.349 36.8419 144.215 36.5032 145.306 36.5032C146.379 36.5032 147.225 36.8419 147.846 37.5192C148.467 38.1777 148.778 39.1279 148.778 40.3697V49.0053H152.729V39.8333C152.729 38.4221 152.465 37.2183 151.939 36.2211C151.431 35.2051 150.715 34.4429 149.794 33.9349C148.872 33.4081 147.818 33.1448 146.632 33.1448C145.598 33.1448 144.657 33.3424 143.81 33.7375C142.964 34.1138 142.287 34.6404 141.779 35.3178V28.1213H137.827ZM78.8428 29.0525C76.9613 29.0525 75.2495 29.4852 73.7067 30.3506C72.1827 31.1973 70.9783 32.3921 70.094 33.9349C69.2285 35.4589 68.7959 37.19 68.7959 39.1279C68.7959 41.0658 69.2285 42.7968 70.094 44.3208C70.9783 45.8448 72.1827 47.0396 73.7067 47.9051C75.2495 48.7518 76.971 49.1748 78.8713 49.1748C80.5646 49.1748 82.0884 48.8266 83.4431 48.1304C84.8165 47.4155 85.936 46.4749 86.8015 45.3084C87.667 44.1419 88.2315 42.8718 88.4949 41.4983V38.0556H77.8269V41.0751H84.6001C84.2991 42.505 83.6688 43.6245 82.7093 44.4335C81.7497 45.2237 80.5175 45.619 79.0123 45.619C77.7894 45.619 76.7169 45.3556 75.795 44.8288C74.873 44.302 74.1488 43.5494 73.622 42.5711C73.114 41.5927 72.8597 40.4449 72.8597 39.1279C72.8597 37.8485 73.114 36.7194 73.622 35.741C74.13 34.7626 74.8355 34.0101 75.7386 33.4833C76.6417 32.9565 77.6763 32.6931 78.8428 32.6931C79.8965 32.6931 80.8183 32.9094 81.6086 33.3422C82.3988 33.7749 83.0199 34.4052 83.4715 35.233H88.0154C87.3945 33.2763 86.2654 31.7616 84.6285 30.6891C82.9916 29.5979 81.063 29.0525 78.8428 29.0525V29.0525ZM109.887 33.1164C108.382 33.1164 107.018 33.455 105.795 34.1323C104.572 34.7908 103.603 35.7319 102.888 36.9549C102.192 38.1778 101.844 39.589 101.844 41.1882C101.844 42.7875 102.183 44.1986 102.86 45.4215C103.556 46.6445 104.506 47.5947 105.71 48.272C106.915 48.9305 108.269 49.2596 109.774 49.2596C111.298 49.2596 112.672 48.9305 113.895 48.272C115.137 47.5947 116.115 46.6445 116.83 45.4215C117.564 44.1986 117.931 42.7875 117.931 41.1882C117.931 39.589 117.573 38.1778 116.858 36.9549C116.162 35.7319 115.203 34.7908 113.98 34.1323C112.757 33.455 111.393 33.1164 109.887 33.1164V33.1164ZM127.555 33.1164C126.049 33.1164 124.714 33.455 123.547 34.1323C122.381 34.7908 121.468 35.7319 120.809 36.9549C120.151 38.159 119.822 39.5701 119.822 41.1882C119.822 42.8063 120.151 44.2265 120.809 45.4495C121.468 46.6536 122.381 47.5947 123.547 48.272C124.714 48.9305 126.049 49.2596 127.555 49.2596C129.474 49.2596 131.073 48.7607 132.352 47.7635C133.632 46.7663 134.488 45.4214 134.921 43.7281H130.659C130.17 45.158 129.125 45.8727 127.526 45.8727C126.397 45.8727 125.504 45.4684 124.845 44.6593C124.187 43.8315 123.857 42.6746 123.857 41.1882C123.857 39.683 124.187 38.5256 124.845 37.7166C125.504 36.8887 126.397 36.4748 127.526 36.4748C128.316 36.4748 128.975 36.6724 129.502 37.0675C130.047 37.4438 130.433 37.9705 130.659 38.6478H134.921C134.488 36.898 133.632 35.5435 132.352 34.584C131.092 33.6056 129.493 33.1164 127.555 33.1164V33.1164ZM163.538 33.1164C162.033 33.1164 160.669 33.455 159.446 34.1323C158.223 34.7908 157.254 35.7319 156.539 36.9549C155.843 38.1778 155.494 39.589 155.494 41.1882C155.494 42.7875 155.833 44.1986 156.51 45.4215C157.207 46.6445 158.157 47.5947 159.361 48.272C160.565 48.9305 161.92 49.2596 163.425 49.2596C164.949 49.2596 166.322 48.9305 167.545 48.272C168.787 47.5947 169.766 46.6445 170.481 45.4215C171.214 44.1986 171.581 42.7875 171.581 41.1882C171.581 39.589 171.224 38.1778 170.509 36.9549C169.812 35.7319 168.853 34.7908 167.63 34.1323C166.407 33.455 165.043 33.1164 163.538 33.1164V33.1164ZM230.932 33.1164C229.596 33.1164 228.383 33.4459 227.292 34.1044C226.219 34.7629 225.363 35.7035 224.723 36.9265C224.102 38.1494 223.792 39.5509 223.792 41.1314C223.792 42.7306 224.102 44.1514 224.723 45.3931C225.363 46.6161 226.219 47.5663 227.292 48.2436C228.383 48.9209 229.587 49.2596 230.904 49.2596C232.071 49.2596 233.096 49.0245 233.98 48.5542C234.883 48.065 235.589 47.4534 236.097 46.7197V49.0053H240.076V33.3706H236.097V35.5999C235.57 34.885 234.864 34.2926 233.98 33.8223C233.115 33.3519 232.099 33.1164 230.932 33.1164V33.1164ZM100.179 33.1448C99.1254 33.1448 98.1848 33.3798 97.3569 33.8501C96.5479 34.3205 95.8894 34.9694 95.3814 35.7973V33.3706H91.4302V49.0053H95.3814V41.2161C95.3814 39.7674 95.6917 38.7515 96.3126 38.1682C96.9523 37.585 97.8928 37.2933 99.1346 37.2933H100.179V33.1448ZM214.817 33.1448C213.839 33.1448 212.936 33.3424 212.108 33.7375C211.299 34.1138 210.631 34.6404 210.105 35.3177V33.3706H206.153V49.0053H210.105V40.3696C210.105 39.1279 210.415 38.1777 211.036 37.5192C211.675 36.8418 212.541 36.5032 213.632 36.5032C214.704 36.5032 215.551 36.8418 216.172 37.5192C216.793 38.1777 217.104 39.1279 217.104 40.3696V49.0053H221.055V39.8332C221.055 37.726 220.481 36.0889 219.333 34.9224C218.185 33.7371 216.68 33.1448 214.817 33.1448V33.1448ZM172.738 33.3706L177.339 49.0053H181.628L184.479 38.0835L187.329 49.0053H191.59L196.163 33.3706H192.381L189.615 45.252L186.68 33.3706H182.503L179.512 45.2804L176.746 33.3706H172.738ZM198.307 33.3706V49.0053H202.259V33.3706H198.307ZM109.831 36.5595C110.96 36.5595 111.91 36.9639 112.682 37.7729C113.472 38.5631 113.867 39.7018 113.867 41.1882C113.867 42.1854 113.679 43.0319 113.302 43.7281C112.926 44.4242 112.418 44.9509 111.778 45.3083C111.157 45.647 110.489 45.8163 109.774 45.8163C108.645 45.8163 107.705 45.4211 106.952 44.6309C106.218 43.8218 105.852 42.6746 105.852 41.1882C105.852 39.7018 106.228 38.5631 106.981 37.7729C107.752 36.9639 108.702 36.5595 109.831 36.5595ZM163.481 36.5595C164.61 36.5595 165.56 36.9639 166.332 37.7729C167.122 38.5631 167.517 39.7018 167.517 41.1882C167.517 42.1854 167.329 43.0319 166.953 43.7281C166.576 44.4242 166.068 44.9509 165.429 45.3083C164.808 45.647 164.14 45.8163 163.425 45.8163C162.296 45.8163 161.355 45.4211 160.603 44.6309C159.869 43.8218 159.502 42.6746 159.502 41.1882C159.502 39.7018 159.878 38.5631 160.631 37.7729C161.402 36.9639 162.352 36.5595 163.481 36.5595V36.5595ZM231.948 36.5879C232.682 36.5879 233.369 36.7759 234.009 37.1522C234.648 37.5097 235.156 38.0363 235.533 38.7325C235.909 39.4098 236.097 40.2286 236.097 41.1882C236.097 42.1477 235.909 42.9756 235.533 43.6717C235.156 44.3491 234.648 44.8757 234.009 45.252C233.369 45.6095 232.682 45.7884 231.948 45.7884C231.233 45.7884 230.556 45.5999 229.916 45.2236C229.295 44.8473 228.787 44.311 228.392 43.6149C228.016 42.8999 227.828 42.0721 227.828 41.1313C227.828 40.1906 228.016 39.3819 228.392 38.7046C228.787 38.0084 229.295 37.4813 229.916 37.1238C230.537 36.7663 231.214 36.5879 231.948 36.5879V36.5879Z"
      fill="#333333"/>
    <path
      d="M27.4488 0C20.1689 0 13.1872 2.89191 8.03955 8.03955C2.89191 13.1872 0 20.1689 0 27.4488C0 34.7286 2.89191 41.7103 8.03955 46.858C13.1872 52.0056 20.1689 54.8975 27.4488 54.8975C34.2432 54.8829 40.7909 52.3489 45.8249 47.7856C50.859 43.2223 54.0216 36.9541 54.7011 30.1936H49.4078H49.1916H35.6834V35.6834H47.6898C46.057 39.7201 43.2608 43.1803 39.6566 45.624C36.0525 48.0678 31.8032 49.3848 27.4488 49.4078C21.6249 49.4078 16.0395 47.0942 11.9214 42.9761C7.80328 38.858 5.48975 33.2726 5.48975 27.4488C5.48975 21.6249 7.80328 16.0395 11.9214 11.9214C16.0395 7.80328 21.6249 5.48975 27.4488 5.48975C32.796 5.49147 37.959 7.44429 41.9689 10.9818C45.9788 14.5194 48.5601 19.3985 49.2285 24.7039H54.7588C54.0783 17.9335 50.9074 11.6573 45.8612 7.0926C40.815 2.52793 34.2532 0.000286584 27.4488 0V0Z"
      fill="#5c6bc0"/>
    <path
      d="M24.7039 10.9795V11.2317V16.8241V38.0397C22.8109 37.5518 21.0825 36.5673 19.6973 35.188C18.312 33.8086 17.3202 32.0845 16.8242 30.1936H11.2317C11.8065 33.5564 13.4115 36.6576 15.8248 39.0689C18.2381 41.4802 21.3407 43.0826 24.7039 43.6547V43.663H24.747C25.639 43.8222 26.5427 43.9075 27.4488 43.918H30.1936V43.663V16.8209V11.2147V10.9795H24.7039Z"
      fill="#5c6bc0"/>
  </g>
  <defs>
    <clipPath id="clip0_47_2">
      <rect width="240.076" height="54.8975" fill="white"/>
    </clipPath>
  </defs>
</svg>
